<svg xmlns="http://www.w3.org/2000/svg" version="1.1" xmlns:xlink="http://www.w3.org/1999/xlink" xmlns:svgjs="http://svgjs.com/svgjs" width="1440" height="560" preserveAspectRatio="none" viewBox="0 0 1440 560"><g mask="url(&quot;#SvgjsMask1027&quot;)" fill="none"><rect width="1440" height="560" x="0" y="0" fill="rgba(255, 255, 255, 1)"></rect><path d="M121.59 330.12L135.97 330.12L135.97 344.5L121.59 344.5z" fill="rgba(73, 66, 228, 1)"></path><path d="M1364.02 484 a15.38 15.38 0 1 0 30.76 0 a15.38 15.38 0 1 0 -30.76 0z" stroke="rgba(134, 150, 254, 1)"></path><path d="M1191.48 442.99L1209.75 442.99L1209.75 461.26L1191.48 461.26z" fill="rgba(134, 150, 254, 1)"></path><path d="M125.02 459.12a42.5 42.5 0 1 0-15.62 83.55z" fill="rgba(196, 176, 255, 1)"></path><path d="M759.5 534.84L775.43 534.84L775.43 539.97L759.5 539.97z" fill="rgba(196, 176, 255, 1)"></path><path d="M1417.38 200.5L1450.08 200.5L1450.08 233.2L1417.38 233.2z" stroke="rgba(134, 150, 254, 1)"></path><path d="M193.59 507.87L247.52 507.87L247.52 561.8L193.59 561.8z" fill="rgba(196, 176, 255, 1)"></path><path d="M67.38 92.82L116.24 92.82L116.24 141.68L67.38 141.68z" fill="rgba(73, 66, 228, 1)"></path><path d="M583.35 81.5a28.79 28.79 0 1 0 40.61-40.82z" stroke="rgba(134, 150, 254, 1)"></path><path d="M1005.52 367.24L1030.36 367.24L1030.36 392.08L1005.52 392.08z" stroke="rgba(134, 150, 254, 1)"></path><path d="M269.52 357.51L286.74 357.51L286.74 374.73L269.52 374.73z" fill="rgba(73, 66, 228, 1)"></path><path d="M1275.02 51.34 a51.87 51.87 0 1 0 103.74 0 a51.87 51.87 0 1 0 -103.74 0z" stroke="rgba(196, 176, 255, 1)"></path><path d="M428.69 267.59L442.41 267.59L442.41 281.31L428.69 281.31z" fill="rgba(196, 176, 255, 1)"></path><path d="M152.63 377.77 a17.8 17.8 0 1 0 35.6 0 a17.8 17.8 0 1 0 -35.6 0z" stroke="rgba(134, 150, 254, 1)"></path><path d="M1415.03 435.03a27.23 27.23 0 1 0-9.59 53.61z" fill="rgba(196, 176, 255, 1)"></path><path d="M916.45 137.84L960.41 137.84L960.41 178.77L916.45 178.77z" stroke="rgba(134, 150, 254, 1)"></path><path d="M1174.05 188.63L1224.49 188.63L1224.49 239.07L1174.05 239.07z" fill="rgba(73, 66, 228, 1)"></path><path d="M265.34 263.39L292.41 263.39L292.41 306.25L265.34 306.25z" stroke="rgba(134, 150, 254, 1)"></path><path d="M202.83 167.76L257.09 167.76L257.09 222.02L202.83 222.02z" stroke="rgba(134, 150, 254, 1)"></path><path d="M1425.33 308.81a44.51 44.51 0 1 0-21.21 86.45z" fill="rgba(73, 66, 228, 1)"></path><path d="M151.32 181.03a10.23 10.23 0 1 0-13.64 15.26z" fill="rgba(196, 176, 255, 1)"></path><path d="M371.8 60.37L383.12 60.37L383.12 71.69L371.8 71.69z" fill="rgba(73, 66, 228, 1)"></path><path d="M379.93 70.37 a5.07 5.07 0 1 0 10.14 0 a5.07 5.07 0 1 0 -10.14 0z" stroke="rgba(196, 176, 255, 1)"></path><path d="M770.95 298.94a36.13 36.13 0 1 0 12.23-71.22z" stroke="rgba(196, 176, 255, 1)"></path><path d="M906.83 346.22L925.92 346.22L925.92 382.93L906.83 382.93z" stroke="rgba(73, 66, 228, 1)"></path><path d="M647.66 179.61L650.68 179.61L650.68 182.63L647.66 182.63z" stroke="rgba(196, 176, 255, 1)"></path><path d="M998.45 358.74L1043.99 358.74L1043.99 394.79L998.45 394.79z" fill="rgba(134, 150, 254, 1)"></path><path d="M375.23 96.38L414 96.38L414 98.66L375.23 98.66z" fill="rgba(196, 176, 255, 1)"></path><path d="M797.43 14.54L815.19 14.54L815.19 32.3L797.43 32.3z" stroke="rgba(134, 150, 254, 1)"></path><path d="M1004.54 169.22 a14.96 14.96 0 1 0 29.92 0 a14.96 14.96 0 1 0 -29.92 0z" fill="rgba(134, 150, 254, 1)"></path><path d="M157.44 182.27L205.11 182.27L205.11 229.94L157.44 229.94z" fill="rgba(134, 150, 254, 1)"></path><path d="M348.4 468.15L371.04 468.15L371.04 490.79L348.4 490.79z" fill="rgba(134, 150, 254, 1)"></path><path d="M430.15 344.75L448.91 344.75L448.91 363.51L430.15 363.51z" stroke="rgba(73, 66, 228, 1)"></path></g><defs><mask id="SvgjsMask1027"><rect width="1440" height="560" fill="#ffffff"></rect></mask></defs></svg>