<svg xmlns="http://www.w3.org/2000/svg" version="1.1" xmlns:xlink="http://www.w3.org/1999/xlink" xmlns:svgjs="http://svgjs.com/svgjs" width="1440" height="560" preserveAspectRatio="none" viewBox="0 0 1440 560"><g mask="url(&quot;#SvgjsMask1161&quot;)" fill="none"><rect width="1440" height="560" x="0" y="0" fill="rgba(255, 255, 255, 1)"></rect><path d="M905.92 172.72L945.84 172.72L945.84 211.28L905.92 211.28z" stroke="rgba(196, 176, 255, 1)"></path><path d="M883.97 389.88L907.79 389.88L907.79 413.7L883.97 413.7z" fill="rgba(73, 66, 228, 1)"></path><path d="M879.47 165.11 a50.95 50.95 0 1 0 101.9 0 a50.95 50.95 0 1 0 -101.9 0z" fill="rgba(134, 150, 254, 1)"></path><path d="M228.58 337.15L272.19 337.15L272.19 380.76L228.58 380.76z" fill="rgba(196, 176, 255, 1)"></path><path d="M857.22 11.42 a23.65 23.65 0 1 0 47.3 0 a23.65 23.65 0 1 0 -47.3 0z" stroke="rgba(134, 150, 254, 1)"></path><path d="M255.87 258.8 a21.89 21.89 0 1 0 43.78 0 a21.89 21.89 0 1 0 -43.78 0z" stroke="rgba(73, 66, 228, 1)"></path><path d="M1084.1 436.87a32.54 32.54 0 1 0 22.41 61.1z" stroke="rgba(73, 66, 228, 1)"></path><path d="M1061.75 423.68 a8.27 8.27 0 1 0 16.54 0 a8.27 8.27 0 1 0 -16.54 0z" stroke="rgba(196, 176, 255, 1)"></path><path d="M327.93 435.72L379.51 435.72L379.51 487.3L327.93 487.3z" fill="rgba(196, 176, 255, 1)"></path><path d="M1306.12 430.58L1308.42 430.58L1308.42 432.88L1306.12 432.88z" stroke="rgba(196, 176, 255, 1)"></path><path d="M54.04 277.15 a0.45 0.45 0 1 0 0.9 0 a0.45 0.45 0 1 0 -0.9 0z" fill="rgba(73, 66, 228, 1)"></path><path d="M622.69 512.21a35.58 35.58 0 1 0-70.95 5.5z" stroke="rgba(196, 176, 255, 1)"></path><path d="M443.14 25.68L457.39 25.68L457.39 39.93L443.14 39.93z" fill="rgba(73, 66, 228, 1)"></path><path d="M332.87 189.71L363.11 189.71L363.11 208.52L332.87 208.52z" fill="rgba(134, 150, 254, 1)"></path><path d="M1063.39 200.77L1116.27 200.77L1116.27 253.65L1063.39 253.65z" stroke="rgba(73, 66, 228, 1)"></path><path d="M1091.68 62.07L1124.54 62.07L1124.54 109.2L1091.68 109.2z" stroke="rgba(73, 66, 228, 1)"></path><path d="M552.33 253.3a22.1 22.1 0 1 0 31.48 31.03z" fill="rgba(73, 66, 228, 1)"></path><path d="M9.21 525 a26.97 26.97 0 1 0 53.94 0 a26.97 26.97 0 1 0 -53.94 0z" stroke="rgba(73, 66, 228, 1)"></path><path d="M424.39 392.64L473.47 392.64L473.47 441.72L424.39 441.72z" fill="rgba(73, 66, 228, 1)"></path><path d="M645.18 213.01 a4.65 4.65 0 1 0 9.3 0 a4.65 4.65 0 1 0 -9.3 0z" fill="rgba(196, 176, 255, 1)"></path><path d="M1267.95 447.14L1280.49 447.14L1280.49 479.24L1267.95 479.24z" fill="rgba(73, 66, 228, 1)"></path><path d="M1359.46 37.15 a29.75 29.75 0 1 0 59.5 0 a29.75 29.75 0 1 0 -59.5 0z" stroke="rgba(73, 66, 228, 1)"></path><path d="M1019.81 130.73a14.98 14.98 0 1 0-9.16-28.52z" stroke="rgba(134, 150, 254, 1)"></path><path d="M1037.51 218.45L1041.62 218.45L1041.62 237.84L1037.51 237.84z" fill="rgba(196, 176, 255, 1)"></path><path d="M187.61 84.69a42 42 0 1 0-13.01 82.99z" stroke="rgba(134, 150, 254, 1)"></path><path d="M1120.36 527.13a28.79 28.79 0 1 0 46.82 33.52z" stroke="rgba(134, 150, 254, 1)"></path><path d="M474.54 122.73a44.81 44.81 0 1 0-41.49 79.44z" stroke="rgba(196, 176, 255, 1)"></path><path d="M747.16 429.62a16.85 16.85 0 1 0-14.67-30.34z" fill="rgba(73, 66, 228, 1)"></path><path d="M682.42 163.97L708.2 163.97L708.2 164.35L682.42 164.35z" fill="rgba(73, 66, 228, 1)"></path><path d="M177.73 433.38 a4.6 4.6 0 1 0 9.2 0 a4.6 4.6 0 1 0 -9.2 0z" stroke="rgba(134, 150, 254, 1)"></path><path d="M1042.95 191.84L1078.77 191.84L1078.77 195.9L1042.95 195.9z" fill="rgba(73, 66, 228, 1)"></path><path d="M1329.82 381.57 a54.06 54.06 0 1 0 108.12 0 a54.06 54.06 0 1 0 -108.12 0z" fill="rgba(134, 150, 254, 1)"></path><path d="M115.36 342.88L153.38 342.88L153.38 346.45L115.36 346.45z" fill="rgba(196, 176, 255, 1)"></path></g><defs><mask id="SvgjsMask1161"><rect width="1440" height="560" fill="#ffffff"></rect></mask></defs></svg>