<svg xmlns="http://www.w3.org/2000/svg" version="1.1" xmlns:xlink="http://www.w3.org/1999/xlink" xmlns:svgjs="http://svgjs.com/svgjs" width="1440" height="560" preserveAspectRatio="none" viewBox="0 0 1440 560"><g mask="url(&quot;#SvgjsMask1128&quot;)" fill="none"><circle r="5.335" cx="1209.005" cy="413.41499999999996" filter="url(#SvgjsFilter1129)" fill="rgba(73, 66, 228, 1)"></circle><circle r="4.78" cx="1344.94" cy="241.88" filter="url(#SvgjsFilter1129)" fill="rgba(73, 66, 228, 1)"></circle><circle r="7.47" cx="1044.92" cy="49.11" filter="url(#SvgjsFilter1129)" fill="rgba(134, 150, 254, 1)"></circle><circle r="7.275" cx="82.155" cy="320.895" filter="url(#SvgjsFilter1129)" fill="rgba(134, 150, 254, 1)"></circle><circle r="8.01" cx="1102.95" cy="14.14" filter="url(#SvgjsFilter1129)" fill="rgba(73, 66, 228, 1)"></circle><circle r="6.265" cx="792.905" cy="45.885" filter="url(#SvgjsFilter1129)" fill="rgba(73, 66, 228, 1)"></circle><circle r="6.555" cx="160.375" cy="107.13499999999999" filter="url(#SvgjsFilter1129)" fill="rgba(73, 66, 228, 1)"></circle><circle r="5.735" cx="97.225" cy="186.525" filter="url(#SvgjsFilter1129)" fill="rgba(134, 150, 254, 1)"></circle><circle r="4.93" cx="1158.66" cy="144.09" filter="url(#SvgjsFilter1129)" fill="rgba(73, 66, 228, 1)"></circle><circle r="7.42" cx="629.3299999999999" cy="261.87" filter="url(#SvgjsFilter1129)" fill="rgba(134, 150, 254, 1)"></circle><circle r="5.78" cx="522.31" cy="253.21" filter="url(#SvgjsFilter1129)" fill="rgba(73, 66, 228, 1)"></circle><circle r="7.89" cx="1310.45" cy="248.67999999999998" filter="url(#SvgjsFilter1129)" fill="rgba(73, 66, 228, 1)"></circle><circle r="7.495" cx="915.845" cy="422.65500000000003" filter="url(#SvgjsFilter1129)" fill="rgba(73, 66, 228, 1)"></circle><circle r="8.535" cx="1381.635" cy="400.58500000000004" filter="url(#SvgjsFilter1129)" fill="rgba(73, 66, 228, 1)"></circle><circle r="5.655" cx="116.125" cy="67.125" filter="url(#SvgjsFilter1129)" fill="rgba(73, 66, 228, 1)"></circle><circle r="6.41" cx="897.28" cy="23.04" filter="url(#SvgjsFilter1129)" fill="rgba(73, 66, 228, 1)"></circle><circle r="7.67" cx="226.89" cy="354.76" filter="url(#SvgjsFilter1129)" fill="rgba(73, 66, 228, 1)"></circle><circle r="8.115" cx="1327.445" cy="458.865" filter="url(#SvgjsFilter1129)" fill="rgba(73, 66, 228, 1)"></circle><circle r="6.78" cx="1017.9599999999999" cy="73.55" filter="url(#SvgjsFilter1129)" fill="rgba(134, 150, 254, 1)"></circle><circle r="7.505" cx="1290.3850000000002" cy="466.695" filter="url(#SvgjsFilter1129)" fill="rgba(134, 150, 254, 1)"></circle><path d="M229.1 376.1L258.7 419.9 256.3 434.3 225.4 445.1 214 435.6 210.3 382.6C210.1 382 210.1 382 209.9 381.4 209.5 380.2 208.5 379.2 206.4 379.2 204.6 379.9 203.6 380.9 203.7 382.9L207 429.2 189.6 414.3 187.8 393.9C187.8 393.9 187.6 393.3 187.6 393.3 187.2 392.1 186.2 391.1 184.2 391.1 182.7 390.9 181.3 392.8 181.4 394.8L182 408.1 169.3 397C168.2 396 166.2 396 164.6 397.3S163.9 400.9 165.1 402.5L177.6 413.1 164.5 414.3C162.4 414.3 161 416.1 161.1 418.2 161.5 419.4 162.7 421 164.8 420.9L185.2 419.2 202.8 434.7 156.5 438.1C154.5 438.1 153.1 439.9 152.9 441.4 153.6 443.2 154.8 444.8 156.8 444.7L209.6 440.5 221.3 450.7 215.3 481.9 200.8 487 152.9 464.4C151.2 463.6 149.4 464.3 148.6 465.9S148.5 469.4 150.1 470.1L192.3 489.9 170 497.8 152 489.1C150.4 488.3 148.6 489 147.2 490.8S147 494.3 148.7 495.1L161.5 500.7 145.2 506.4C143.4 507.1 142.8 509.3 143.4 511.1 144.1 512.9 145.7 513.7 147.5 513.1L163.8 507.4 157.9 519.6C156.5 521.5 157.2 523.3 159.4 523.8 161 524.6 162.9 524 163.6 522.4L172.3 504.4 194.6 496.6 174 538.4C173.2 540 174.1 542.4 175.7 543.2S179.1 543.4 179.9 541.7L203.1 493.6 217.6 488.6 242 509.9 239 524.5 195.1 554.1C193.5 555.3 193.5 557.3 194.2 559.1 195.4 560.7 197.4 560.7 199.2 560.1L237.5 533.8 233.2 556.3 216.1 567.7C214.5 569 214.6 571 215.2 572.8 216.2 573.8 218.5 574.4 220.1 573.1L231.1 565.9 228.1 582.5C227.9 583.9 229.2 585.5 230.8 586.3 232.8 586.3 234.4 585.1 234.6 583.6L237.6 567 245.6 578.4C246.7 579.4 248.9 580 249.9 579 251.7 578.3 251.9 576.9 251.3 575.1 251.3 575.1 251.1 574.5 251.1 574.5L239.7 557.5 244 534.9 270.3 573.2C271.5 574.8 273.1 575.6 274.7 574.3 276.3 573.1 276.5 571.7 276.1 570.5 275.9 569.9 275.9 569.9 275.9 569.9L245.5 525.6 248.5 511 279.3 500.2 290.2 509.9 294.6 563.3C294.4 564.7 296.3 566.1 297.7 566.3 299.7 566.3 301.1 564.4 301.1 562.4L297.7 516.1 315.2 531 316.9 551.4C316.9 553.5 318.2 555.1 320 554.4 322 554.4 323.4 552.6 323.6 551.1L322.2 537.4 334.9 548.5C336.5 549.3 338.5 549.3 340.1 548.1 340.5 547.2 340.7 545.8 340.3 544.6 340.1 544 340.1 544 339.2 543.6L326.5 532.5 340.3 531.1C342.3 531 343.1 529.4 343.3 528 343.1 527.4 343.1 527.4 342.8 526.8 342.4 525.6 341.4 524.6 340 524.4L319.6 526.1 302.1 511.2 348.4 507.9C350.2 507.2 351.8 506 351.2 504.2 351.6 503.4 351.6 503.4 351.4 502.8 351 501.5 349.3 500.8 347.9 500.6L294.5 505 283.7 495.3 289.5 463.4 303.4 458.5 351.5 481.7C353.1 482.5 355.5 481.6 356.3 480S356.3 476 354.6 475.2L312.4 455.4 334.2 447.8 352.7 456.2C354.4 457 356.2 456.3 356.9 454.7 357.7 453.1 357.1 451.3 355.5 450.5L343.2 444.6 359.5 438.9C360.8 438.5 362.1 436.6 361.5 434.8 360.9 433 358.4 431.8 357.2 432.2L340.9 437.9 346.8 425.7C347.2 424.9 347.6 424.1 347.4 423.5 347 422.3 346.1 421.9 345.3 421.5 343.7 420.7 341.9 421.3 341.1 423L331.8 441.1 310.1 448.7 330.7 406.9C331.1 406.1 330.9 405.5 330.5 404.3 330.3 403.7 330.1 403.1 329.3 402.7 327.6 401.9 325.2 402.8 324.4 404.4L301 451.9 287.1 456.8 263 436.1 265.2 421.1 309.7 391.2C310.6 390.2 311.4 388.6 311 387.4 310.8 386.8 310.8 386.8 310.2 387 309.6 385.2 307.3 384.6 305.7 385.8L267.5 412.1 271.6 389 288.6 377.6C289.6 376.6 289.8 375.1 289.4 373.9 289.4 373.9 289.1 373.3 289.1 373.3 288.5 371.5 286.3 370.9 284.7 372.2L273.3 380.3 276.2 363.6C276.6 362.8 276.4 362.2 276.2 361.6 275.8 360.4 274.8 359.4 274.2 359.6 271.9 359 270.3 360.3 269.5 361.9L266.5 378.5 259.3 367.5C258.1 365.9 255.8 365.3 254.2 366.6 253.2 367.6 252.7 369.8 253.7 370.8L265.1 387.9 260.8 410.4 234.5 372.1C233.2 370.5 231.2 370.6 229.4 371.2 228.4 372.2 227.8 374.5 229.1 376.1ZM231.4 450.5L255 442.3 258.6 441 261.4 443.4 279.9 459.3 283 462.3 282.2 465.9 277.7 489.9 277 493.5 273.3 494.8 249.8 503.1 246.2 504.3 243.3 501.9 224.8 486 222 483.6 222.5 479.4 227 455.4 227.8 451.8 231.4 450.5Z" fill="rgba(73, 66, 228, 1)"></path><path d="M899.7 341.2L889 358.3 882.3 346.6C881.7 345.3 879.8 344.6 877.8 345.2 876.5 346.4 875.8 348.3 876.4 349.6L885 365.2 875 381 857.9 349.2C856.6 347.2 854.7 346.5 853.4 347.8 851.5 348.4 850.8 350.3 852 352.2L871 387.3 862.4 401.8 823.3 400.8 816 387.9 838.6 351.9C838.6 351.3 838.6 350.6 838.7 350 838.7 349.4 838.1 348.1 837.4 347.4 835.5 346.1 833.6 346.7 832.9 348.6L812.3 381.4 803.7 365.2 813.7 348.1C814.4 348.1 814.4 347.5 814.4 346.9 814.4 345.6 813.8 344.3 812.6 343.6 811.3 342.9 809.4 343.5 808.1 344.8L800 358.7 789 338.6C788.4 337.3 786.5 336.6 784.5 337.2 783.2 338.4 782.6 340.3 783.2 341.6L793.6 360.4 780.2 360.1C778.2 360.1 776.9 362 776.9 363.2 776.8 365.2 778.1 367.1 780 367.1L797.3 367.6 805.8 383.8 770 382.9C768.1 382.9 766.8 384.1 766.7 386 766.7 388 767.9 389.3 769.8 389.3L809.5 390.3 817.5 403.9 796.9 437.3 782.1 437 762.5 401.3C761.9 399.4 759.4 398.7 758.1 399.9 756.1 400.5 756.1 402.4 756.7 404.4L774.5 436.8 755.9 436.3 747.3 420.1C746.7 418.8 744.2 418.1 742.9 418.8S740.9 421.9 741.5 423.8L748.2 436.2 725.8 435.6C723.9 435.6 722.6 437.5 722.5 439.4 722.5 440.7 723.8 442.6 725.7 442.7L748.1 443.2 740.7 455.8C740 457.1 740 459 741.9 460.3 743.2 461 745.7 460.4 746.4 459.2L755.7 443.4 774.3 443.8 755 475.4C754.3 477.3 754.2 479.2 756.1 480.5 757.4 481.2 760 480.6 760.6 479.4L782 444 796.7 444.4 815.7 478.8 807.1 492 767.4 491C765.5 491 764.2 492.2 764.1 494.2 764.1 496.1 765.3 498 767.2 498.1L803.1 498.9 793.7 514.7 776.4 514.3C774.5 514.3 773.2 515.5 773.2 517.4 773.1 519.3 774.4 520.7 776.3 520.7L789.7 521 778.4 539.3C777.7 540.6 778.3 543.2 779.6 543.8 781.5 544.5 783.4 544.6 784.1 542.7L796.1 523.7 803.4 537.4C804.7 538.7 806.6 539.4 807.9 538.7 809.2 538.1 809.8 536.9 809.9 535.6 809.9 535.6 809.9 535 809.2 534.3L800.1 516.8 809.4 501 828.4 534.8C829 536.7 830.9 537.4 832.9 536.2 833.5 535.5 834.2 534.9 834.2 533.6 834.2 533 834.3 532.3 834.3 531.7L813.4 494.7 821.4 482.1 860.4 483 868.4 498 847.7 532C846.4 533.9 847 535.9 848.9 536.5 850.1 537.8 852.1 537.3 853.4 535.4L872.1 504.4 881.3 520.7 872 535.8C871.3 537.1 871.9 539 873.1 540.3 875 541 876.9 541.1 877.6 539.2L884.9 527.8 894.8 545.3C895.4 547.3 897.3 547.3 899.2 546.7 899.9 546.1 900.5 544.8 900.6 543.5 900.6 543.5 900.6 542.9 900.6 542.3L890.2 523.4 906.2 523.8C907.4 523.9 909.4 522.6 909.4 520.7 909.5 518.8 907.6 517.5 906.3 517.4L886.5 517 877.3 500.7 916.3 501.7C918.2 501.7 919.6 499.8 919.6 497.9S918.4 494.7 916.5 494.6L873.6 493.6 866.3 480 886.9 446.5 903.5 446.9 923.2 483.3C924.4 484.6 926.3 485.3 928.2 484.7 928.9 484 929.6 482.8 929.6 481.5 929.6 480.9 929.6 480.2 929 479.6L911.2 447.1 929.8 447.6 939 463.8C939.6 465.1 941.5 465.8 943.4 465.2 944.7 463.9 945.4 462 944.8 460.7L937.4 447.8 957.9 448.3C959.2 448.3 961.2 446.4 961.2 445.1 961.2 443.2 959.4 441.3 958.1 441.2L937.6 440.7 945.6 428.8C945.6 428.1 945.6 427.5 945.6 426.8 945.7 425.6 945.1 424.3 944.4 423.6 942.5 422.9 940.6 423.5 939.3 424.8L929.9 440.5 911.4 440.1 930.7 408.6C932 406.7 931.4 404.7 930.2 404.1 928.3 402.7 926.4 403.3 925 404.6L903.7 439.9 887.1 439.5 868.1 405.1 876.1 391.9 918.9 392.9C920.8 392.9 922.2 391.7 922.2 389.8 922.2 387.9 921 386.6 919.1 386.5L880.1 385.6 890 369.8 909.9 370.3C911.1 370.3 913.1 368.4 913.2 366.5 913.2 364.6 911.3 363.3 910 363.2L894 362.9 905.4 344.6C905.4 343.9 905.4 343.9 905.4 343.3 905.4 342 904.8 340.7 904.2 340.1 902.3 339.4 900.4 340 899.7 341.2ZM879.4 439.3L881.2 443.2 879.2 446.4 862.6 473.5 860.6 476.6 856.7 476.5 825.4 475.8 821.5 475.7 819.7 472.5 804.4 444.6 802.5 441.3 804.5 437.5 821.2 411 823.2 407.2 827 407.3 858.4 408.1 862.2 408.2 864 412.1 879.4 439.3Z" fill="rgba(73, 66, 228, 1)"></path><path d="M1337.4 197.8L1348.4 195.8 1346.4 202.2C1346.1 202.9 1346.5 203.8 1347.4 204.3 1348.3 204.4 1349.2 204 1349.3 203.1L1352.1 195.1 1360.6 193.2 1354.7 209.8C1354.7 210.7 1355.1 211.6 1355.7 211.9 1356.8 212.2 1357.8 211.8 1357.8 210.9L1364.3 192.5 1377.4 190 1370.8 203.8 1385.4 199.2 1381.1 211.8 1362.1 215.7C1361.8 215.5 1361.6 215.7 1361.4 215.9 1360.9 216.3 1360.6 217 1360.8 217.7 1361 218.4 1361.8 218.9 1362.7 219L1380 215.3 1377 223.5 1368.7 225.3C1368.2 225.2 1368 225.4 1367.7 225.6 1367.5 225.9 1367.2 226.5 1367.4 227.2 1367.6 227.9 1368.5 228.4 1369.2 228.2L1375.8 227.1 1372.4 237.7C1371.9 238.6 1372.5 239.3 1373.4 239.9 1374 240.1 1375 239.7 1375.3 238.6L1378.9 228.2 1383.3 233.3C1384 234 1385.1 233.8 1385.6 233.4 1386.3 232.8 1386.4 231.9 1385.7 231.2L1380.1 224.6 1383.1 216.5 1394.5 229.5C1395.1 230.2 1396 230.2 1396.7 229.6 1397.2 229.2 1397.5 228.1 1396.9 227.4L1384.2 212.9 1388.5 200.3 1397.2 212.6 1400.4 197.9 1409.3 208 1403.1 226.2C1402.8 227.3 1403.4 228 1404.1 228.3 1404.7 228.6 1405.7 228.2 1406.2 227.3L1411.6 210.6 1417.3 217.2 1414.7 225.4C1414.2 226.2 1414.6 227.2 1415.7 227.5 1416.4 227.7 1417.3 227.4 1417.6 226.2L1419.8 220 1427.2 228.5C1427.8 229.2 1428.7 229.3 1429.5 228.6S1430.2 227.1 1429.6 226.4L1422.2 217.9 1428.7 216.5C1429.8 216.4 1430.3 215.5 1430.1 214.8 1430 213.7 1429.1 213.2 1428.2 213.6L1419.7 215 1414 208.5 1431.2 205.4C1432.2 205 1432.7 204.1 1432.5 203.4 1432.3 202.3 1431.5 201.8 1430.5 202.2L1411.7 205.9 1402.8 195.8 1417.9 194.5 1406.8 184.2 1419.9 181.7 1432.5 196.2C1433.2 196.9 1434.3 196.7 1434.8 196.3 1435.5 195.7 1435.6 194.8 1434.9 194.1L1423.3 180.8 1432.1 179.1 1437.8 185.6C1438.4 186.4 1439.3 186.4 1440 185.8 1440.5 185.4 1440.8 184.2 1440.2 183.5L1435.7 178.5 1446.5 176.2C1447.7 176.1 1448.2 175.2 1447.8 174.3 1447.6 173.6 1447 172.9 1446.1 173.3L1435 175.2 1437.1 168.8C1437.3 168.1 1436.9 167.2 1436.3 166.9 1435.6 166.7 1434.9 166.8 1434.7 167.1 1434.4 167.3 1434.2 167.5 1434.2 167.9L1431.4 175.9 1422.9 177.8 1428.7 161.2C1428.8 160.3 1428.4 159.4 1427.7 159.1 1427.1 158.8 1426.4 159 1425.9 159.4 1425.7 159.7 1425.7 159.7 1425.6 160.1L1419.2 178.5 1406.1 181 1412.7 167.2 1398.1 171.9 1402.3 159.2 1421.4 155.3C1422.1 155.1 1422.8 154.5 1422.7 153.3 1422.5 152.6 1421.6 152.1 1420.7 152.1L1403.5 155.7 1406.5 147.5 1414.8 145.8C1415.7 145.8 1416.2 145 1416.1 143.8 1415.9 143.1 1415 142.6 1414.1 142.6L1407.7 143.9 1411.1 133.3C1411.6 132.4 1411 131.7 1410.1 131.2 1409.6 131.1 1408.9 131.3 1408.7 131.5 1408.5 131.7 1408.2 132 1408.2 132.4L1404.6 142.8 1400.1 137.8C1399.5 137 1398.3 137.2 1397.9 137.6L1397.9 137.6C1397.1 138.3 1397.1 139.2 1397.7 139.9L1403.4 146.4 1400.4 154.6 1389 141.6C1388.4 140.8 1387.5 140.8 1386.7 141.4S1385.9 142.9 1386.6 143.7L1399.2 158.1 1395 170.8 1386.3 158.4 1383 173.1 1374.2 163 1380.4 144.8C1380.7 143.7 1380 143 1379.4 142.7 1378.7 142.5 1377.8 142.9 1377.3 143.7L1371.6 160.1 1366.2 153.9 1368.8 145.7C1369.3 144.8 1368.9 143.9 1367.8 143.6 1367.1 143.3 1366.2 143.7 1365.7 144.5L1363.6 151 1356.3 142.6C1355.6 141.8 1354.7 141.8 1354 142.4S1353.2 143.9 1353.9 144.7L1361.2 153.1 1354.8 154.5C1354.3 154.5 1354.1 154.7 1353.9 154.9 1353.4 155.3 1353.3 155.7 1353.3 156.2 1353.5 157.3 1354.3 157.9 1355.3 157.5L1363.8 156 1369.5 162.5 1352.2 165.6C1352 165.9 1351.8 166.1 1351.5 166.3 1351 166.7 1351 167.2 1351 167.6 1351.1 168.7 1352 169.3 1352.9 168.9L1371.8 165.1 1380.6 175.2 1365.6 176.5 1376.7 186.8 1363.6 189.3 1350.9 174.9C1350.3 174.1 1349.2 174.3 1348.7 174.7 1348 175.3 1347.9 176.2 1348.5 177L1359.9 190 1351.4 191.9 1345.7 185.4C1345.1 184.7 1344.2 184.6 1343.4 185.2S1342.7 186.8 1343.3 187.5L1347.7 192.6 1336.9 194.8C1336.5 194.8 1336.2 195 1336 195.2 1335.7 195.4 1335.5 196.1 1335.6 196.7 1335.8 197.4 1336.5 198.2 1337.4 197.8ZM1372.9 179L1385.2 178 1387.8 166 1395.1 176.2 1406.7 172.4 1401.6 183.7 1410.6 192 1398.3 193 1395.6 205.1 1388.6 195.1 1376.8 198.6 1382.1 187.6 1372.9 179Z" fill="rgba(73, 66, 228, 1)"></path><path d="M518.3 233.7L504.2 239.1 505.5 229C505.7 228 504.9 226.7 503.5 226.2 502.1 226.4 500.8 227.2 500.6 228.2L498.7 241.4 485.6 246.3 489.7 219.6C489.9 217.8 489 216.6 487.7 216.7 486.3 216.2 485 217 484.9 218.7L480.3 248.3 468.6 253 445.7 234.8 447.2 223.7 477 212.5C477.3 212.1 477.6 211.7 477.9 211.3 478.2 211 478.4 209.9 478.3 209.2 477.8 207.6 476.4 207.1 475.1 207.9L447.9 218.1 450.1 204.6 463.8 198.9C464.2 199.2 464.5 198.8 464.8 198.5 465.4 197.7 465.6 196.7 465.2 195.7 464.7 194.7 463.3 194.2 461.9 194.3L450.9 199 453.4 182C453.6 180.9 452.8 179.7 451.3 179.2 450 179.3 448.7 180.1 448.5 181.2L446.2 197.2 438.3 190.9C437.2 190 435.6 190.5 435 191.3 434.1 192.4 433.9 194.1 435 195L445.2 203.1 442.9 216.6 421.9 199.9C420.8 199 419.5 199.2 418.6 200.3 417.7 201.4 417.8 202.8 418.9 203.7L442.2 222.2 440.8 234 413.3 244.6 404.7 237.7 409.1 207.5C409.6 206.1 408.4 204.5 407.1 204.6 405.7 204.1 404.8 205.3 404.2 206.7L400.2 234.1 389.3 225.4 391.5 211.9C391.7 210.8 390.5 209.3 389.5 209S386.9 210 386.3 211.4L384.8 221.9 371.6 211.4C370.5 210.5 368.9 211 368 212.1 367.4 212.9 367.2 214.6 368.4 215.5L381.5 226 371.4 230.2C370.4 230.7 369.5 231.8 370 233.4 370.5 234.4 372.3 235.2 373.3 234.8L386 229.6 396.9 238.3 371 248.3C369.8 249.2 368.9 250.3 369.4 251.9 369.9 252.9 371.7 253.7 372.6 253.3L401.4 241.8 410 248.7 405.8 277.9 394.6 281.9 371.4 263.3C370.2 262.4 368.9 262.6 368 263.7 367.1 264.8 367 266.6 368.1 267.5L389.1 284.2 376.4 289.4 366.2 281.3C365.1 280.4 363.8 280.6 362.9 281.7 362 282.8 362.1 284.2 363.2 285.1L371.1 291.4 356.1 297.2C355.1 297.6 354.3 299.4 354.7 300.4 355.6 301.7 356.7 302.6 358 301.7L373.7 295.9 371.9 307.3C372.1 308.7 372.9 310 373.9 310.2 375 310.4 376 310 376.6 309.2 376.6 309.2 376.9 308.8 376.8 308.2L379.2 293.5 392 288.3 388 317.1C387.5 318.6 388.3 319.8 390.1 320 390.7 319.9 391.4 319.8 392 319.1 392.3 318.7 392.6 318.3 392.9 317.9L397.2 286.4 407.7 282.5 430.6 300.7 428.6 313.2 400.8 324.2C399.2 324.8 398.6 326.2 399.5 327.5 399.6 328.8 401 329.3 402.7 328.8L427.9 318.8 426 332.6 413.6 337.5C412.6 337.9 412.1 339.3 412.2 340.7 413.1 342 414.2 342.9 415.5 342L425 338.6 422.9 353.5C422.4 354.9 423.5 355.8 424.9 356.3 425.6 356.3 426.6 355.8 427.2 355.1 427.2 355.1 427.5 354.7 427.8 354.3L430.1 338.3 439.4 345.8C440.2 346.4 441.9 346.6 442.8 345.4 443.7 344.3 443.2 342.7 442.4 342.1L430.8 332.8 432.6 318.9 455.5 337.2C456.7 338.1 458.3 337.5 459.2 336.4S460 333.9 458.8 333L433.7 313 435.5 301.5 463 290.9 472.7 298.7 468 329.3C468.1 330.6 469 331.9 470.4 332.4 471.1 332.3 472 331.9 472.6 331.1 472.9 330.8 473.2 330.4 473.1 329.7L477.2 302.3 488.1 310.9 486.3 324.8C486 325.9 486.9 327.1 488.3 327.7 489.6 327.5 490.9 326.7 491.1 325.6L492.6 314.5 504.6 324.1C505.4 324.7 507.4 324.5 508 323.7 508.9 322.6 508.7 320.6 507.9 320L495.9 310.4 506.1 306.9C506.4 306.5 506.7 306.1 507 305.7 507.6 305 507.8 303.9 507.7 303.3 506.9 302 505.5 301.5 504.1 301.6L491.4 306.8 480.5 298.1 506.4 288C508 287.5 508.5 286.1 508.1 285.1 507.5 283.5 506.1 282.9 504.8 283.1L476 294.5 466.2 286.8 470.5 257.6 481.2 253.3 506.4 273.3C507.5 274.2 508.9 274.1 509.8 273 510.7 271.8 510.5 270.5 509.4 269.6L486.5 251.3 499.6 246.5 511.2 255.7C512 256.3 514 256.1 514.9 255 515.8 253.8 515.3 252.2 514.5 251.6L505.1 244.1 520.2 238.3C520.5 237.9 520.5 237.9 520.8 237.6 521.4 236.8 521.6 235.8 521.5 235.1 520.7 233.8 519.3 233.3 518.3 233.7ZM461.7 283.2L461.1 286.3 458.5 287.3 436.2 296 433.6 297 431.3 295.2 412.9 280.5 410.7 278.7 411.1 275.9 414.5 252.3 414.9 249.5 417.8 248.2 439.8 239.9 442.7 238.5 444.9 240.3 463.3 255 465.6 256.8 464.9 259.9 461.7 283.2Z" fill="rgba(134, 150, 254, 1)"></path><path d="M401.6 454.7L423.8 469.2 428.5 492.4 406 484.9 394.4 461C394.4 461 394.2 460.8 394.2 460.8 393.8 460.3 392.9 460.2 392.2 460.4 391.2 460.8 390.9 461.9 391.6 462.6L401.8 483.5 390.9 479.8 386.3 470.7C386.3 470.7 386.1 470.5 386.1 470.5 385.7 470 384.8 469.9 384.1 470.1 383.1 470.5 382.8 471.6 383.5 472.3L386.5 478.7 378.5 475.9C377.8 475.6 376.7 476.2 376.4 476.9 375.9 477.8 376.7 478.7 377.4 479L385.4 481.8 379.1 484.8C378.1 485.2 377.8 486.3 378.5 487 378.9 487.9 380 488.2 380.7 487.6L389.8 482.9 400.5 486.8 379.7 497C378.7 497.4 378.4 498.5 379.1 499.3 379.5 500.2 380.6 500.5 381.3 499.9L405.2 488.2 427.6 495.8 409.6 511.6 382.9 509.9C382 509.9 381.3 510.5 381.2 511.4 381.2 512.3 381.8 513 382.7 513.1L406.2 514.6 397.6 522.2 387.6 521.6C386.7 521.5 386 522.2 385.9 523.1 385.9 524 386.5 524.7 387.4 524.7L394.2 525.2 387.5 531.1C386.5 531.5 386.7 532.6 387.3 533.3 388 534.1 388.9 534.1 389.6 533.5L395.8 528 395.4 534.8C395.3 535.7 396 536.4 396.9 536.4S398.5 535.9 398.6 535L399.2 525 407.8 517.4 406.4 540.9C406.3 541.8 406.9 542.5 407.8 542.6 408.7 542.6 409.5 542 409.5 541.1L411.2 514.5 429 498.8 433.6 522 419.3 543.5C418.8 544.4 419.2 545.3 419.9 546.1 420.7 546.6 421.7 546.2 422.4 545.5L435.2 526.2 437.4 537.4 431.7 545.9C431.1 546.8 431.5 547.7 432.2 548.4 433.1 548.9 434 548.5 434.5 548.1L438.2 542.2 440 550.5C440.2 551.2 441 552.2 441.9 551.8 442.9 551.4 443.6 550.7 443.2 549.8L441.5 541.5 447.3 545.3C448.2 545.8 449.1 545.4 449.6 545 449.9 544.3 450 543.4 449.5 542.9 449.5 542.9 449.3 542.7 449.3 542.7L440.8 537 438.6 525.7 458 538.5C458.8 539 459.8 538.6 460.3 538.2 460.5 537.5 460.6 536.6 460.2 536.1 460.2 536.1 459.9 535.9 459.9 535.9L437.7 521.3 433.1 498.2 455.5 505.7 467.2 529.6C467.5 530.5 468.7 530.8 469.4 530.1 470.3 529.8 470.6 528.6 470 527.9L459.7 507.1 470.6 510.7 475.2 519.9C475.6 520.8 476.8 521.1 477.5 520.5 478.4 520.1 478.7 518.9 478.1 518.2L475.1 511.9 483.1 514.7C483.7 515 484.9 514.4 485.2 513.7 485.4 513 485.2 512.3 484.8 511.9 484.6 511.6 484.4 511.4 483.9 511.3L476 508.6 482.3 505.6C483.2 505.2 483.5 504.1 482.9 503.3 482.9 503.3 482.7 503.1 482.7 503.1 482.2 502.6 481.3 502.6 480.6 502.7L471.5 507.4 460.6 503.7 481.4 493.5C482.4 493.1 482.7 492 482 491.3 482 491.3 481.8 491 481.8 491 481.4 490.6 480.5 490.5 479.8 490.7L456 502.3 433.5 494.8 451.3 479.1 477.9 480.8C478.8 480.9 479.6 480.2 479.6 479.3 479.7 478.4 479 477.7 478.1 477.6L454.9 476 463.5 468.3 473.5 469C474.4 469 475.1 468.4 475.2 467.5S474.6 465.9 473.7 465.8L466.9 465.4 473.1 459.9C473.9 459.2 473.9 458.3 473.3 457.6 472.7 456.9 471.8 456.8 471 457.5L464.8 463 465.2 456.2C465.2 455.7 465.3 455.3 464.9 454.8S464 454.3 463.5 454.3C462.6 454.2 461.9 454.9 461.8 455.8L461.2 465.7 452.6 473.3 454.1 449.8C454.1 449.4 454.1 448.9 453.7 448.4 453.5 448.2 452.8 447.9 452.4 447.9 451.5 447.8 450.7 448.5 450.7 449.4L449 476 431.2 491.7 426.6 468.5 441.1 446.3C441.4 445.6 441.5 444.7 441 444.2 441 444.2 440.8 444 440.8 444 439.9 443.5 439 443.9 438.5 444.3L425.7 463.7 423.5 452.4 429.3 443.9C429.5 443.3 429.6 442.4 429.2 441.9 429.2 441.9 429 441.7 429 441.7 428.1 441.2 427.1 441.5 426.7 442L422.9 447.9 421.2 439.6C420.9 439.3 421 438.9 420.8 438.6 420.3 438.2 419.7 437.9 419 438.1 418 438.5 417.3 439.1 417.7 440L419.5 448.3 413.6 444.5C412.7 444 411.8 444.4 411.3 444.9 410.8 445.7 411.2 446.7 411.6 447.1L420.1 452.9 422.3 464.1 402.9 451.4C402.1 450.8 401.1 451.2 400.7 451.7 400.6 453 400.7 454.2 401.6 454.7Z" fill="rgba(134, 150, 254, 1)"></path><path d="M956.9 193L966.3 201.3 958.4 204.2C957.5 204.5 956.9 205.6 957.1 206.8 957.7 207.8 958.8 208.4 959.7 208.2L970.2 204.4 978.9 212.2 957.5 219.6C956.2 220.1 955.6 221.2 956.2 222.2 956.4 223.4 957.5 224 958.8 223.5L982.4 215.3 990.4 222.1 985.9 246.1 977.1 249.3 957.3 231.7C956.9 231.6 956.5 231.6 956.1 231.5 955.7 231.4 954.8 231.7 954.4 232 953.4 233 953.5 234.3 954.6 234.9L972.8 250.9 961.9 254.6 952.4 246.7C952.5 246.3 952.1 246.2 951.7 246.1 950.9 246 950.1 246.2 949.5 246.9 949 247.6 949.1 248.9 949.8 249.8L957.5 256.2 944 261C943.1 261.2 942.5 262.3 942.7 263.6 943.3 264.5 944.4 265.1 945.3 264.9L958 260.3 956.4 268.6C956.2 269.8 957.2 270.8 958 270.9 959.2 271.2 960.5 270.6 960.7 269.4L962.7 258.8 973.6 255.2 969.4 277.2C969.2 278.3 969.9 279.3 971 279.5 972.2 279.7 973.2 279.1 973.4 277.9L978 253.5 987.2 250 1005.7 266.1 1004 275.1 980 283.6C978.8 283.8 978.1 285.3 978.7 286.2 978.9 287.5 980.1 287.7 981.3 287.5L1003.1 279.9 1001 291.3 990.1 294.9C989.2 295.2 988.6 296.7 988.8 297.5S990.5 299.1 991.8 298.9L1000.1 296 997.5 309.7C997.3 310.9 998.3 311.9 999.5 312.1 1000.3 312.3 1001.6 311.7 1001.8 310.6L1004.4 296.8 1011.5 302.6C1012.2 303.1 1013.3 303.4 1014.4 302.3 1014.9 301.6 1014.8 300 1014.1 299.4L1005.3 292.1 1007.5 280.7 1024.9 295.8C1026.1 296.4 1027.2 296.6 1028.2 295.6 1028.8 294.9 1028.7 293.2 1028 292.7L1008.3 276 1010.1 266.9 1033.2 258.7 1040.5 265.3 1035.9 289.7C1035.6 290.9 1036.3 291.8 1037.5 292.1 1038.6 292.3 1040 291.7 1040.2 290.5L1044.4 268.5 1053.1 275.9 1051.1 286.5C1050.9 287.7 1051.5 288.6 1052.7 288.8 1053.9 289.1 1054.8 288.4 1055.1 287.2L1056.6 279 1066.8 287.8C1067.5 288.4 1069.1 288.3 1069.7 287.6 1070.3 286.4 1070.5 285.3 1069.4 284.7L1058.9 275.3 1068.1 272.2C1069 271.6 1069.6 270.4 1069.4 269.6 1069.1 268.7 1068.4 268.2 1067.6 268 1067.6 268 1067.3 268 1066.8 268.3L1055.1 272.2 1046.3 264.8 1069 256.5C1070.3 256.3 1070.9 255.2 1070.3 253.9 1070 253.4 1069.7 253 1068.9 252.8 1068.5 252.7 1068.1 252.7 1067.7 252.6L1042.8 261.7 1035.8 255.5 1040.3 231.5 1050.4 228.1 1069.3 244.3C1070.3 245.3 1071.6 245.2 1072.2 244.1 1073.1 243.4 1072.9 242.2 1071.9 241.2L1054.7 226.5 1065.7 222.5 1074.1 229.8C1074.8 230.3 1076 230.1 1077 229.5 1077.6 228.4 1077.8 227.2 1076.7 226.6L1070.4 220.9 1082.2 216.7C1083.5 216.5 1083.7 215.3 1083.5 214.1 1083.2 213.6 1082.5 213 1081.7 212.9 1081.7 212.9 1081.3 212.8 1080.9 212.7L1068.3 217.3 1070.1 207.4C1070.3 206.7 1069.7 205.3 1068.5 205.1 1067.4 204.9 1066.4 205.9 1066.2 206.7L1063.9 218.9 1053 222.9 1057.5 199C1057.7 197.8 1056.7 196.8 1055.5 196.5S1053.4 197 1053.2 198.1L1048.2 224.5 1039.1 227.6 1020.5 211.5 1022.5 201.3 1046.8 192.9C1047.8 192.2 1048.4 191.1 1048.2 189.9 1047.9 189.4 1047.2 188.9 1046.4 188.7 1046 188.6 1045.6 188.6 1045.2 188.9L1023.3 196.6 1025.5 185.2 1036.4 181.1C1037.3 180.9 1037.9 179.8 1037.7 178.5 1037.1 177.6 1036 177 1035.1 177.2L1026.4 180.5 1028.8 167.9C1028.9 167.1 1028 165.7 1027.2 165.5 1026 165.3 1024.6 166.3 1024.4 167.1L1022.1 179.6 1015.5 173.5C1015.1 173.4 1014.7 173.4 1014.3 173.3 1013.5 173.1 1012.7 173.4 1012.2 173.7 1011.6 174.8 1011.8 176.1 1012.4 177L1021.2 184.4 1019 195.8 1001.5 180.6C1000.5 179.6 999.2 179.8 998.7 180.5 997.7 181.5 997.9 182.8 998.5 183.7L1018.1 200.5 1016.2 210.7 993.1 218.9 985.7 212.7 990.7 186.3C990.9 185.1 990.3 184.2 989.1 184 987.9 183.8 987 184.4 986.7 185.6L982.2 209.6 973.5 201.8 975.8 189.6C976 188.8 975 187.4 973.8 187.2 972.6 187 971.6 188 971.5 188.8L969.6 198.6 959.5 189.8C959.1 189.7 959.1 189.7 958.7 189.6 957.9 189.5 957.1 189.7 956.6 190.1 956 191.2 956.1 192.4 956.9 193ZM1015.3 215.4L1017.9 214.7 1019.6 216.2 1034.7 229.2 1036.4 230.8 1036 233.2 1032.3 252.4 1031.9 254.8 1029.7 255.6 1010.9 262.2 1008.8 263 1006.6 261.4 992 248.4 989.8 246.8 990.3 244.5 993.9 225.2 994.4 222.8 996.9 222.1 1015.3 215.4Z" fill="rgba(73, 66, 228, 1)"></path><path d="M1451.2 540.3L1442.8 534.8 1448.7 531.6C1449.4 531.3 1449.7 530.3 1449.4 529.4 1448.8 528.7 1447.9 528.3 1447.2 528.6L1439.4 532.7 1431.6 527.6 1447.7 519.3C1448.7 518.8 1449 517.8 1448.4 517.1 1448.1 516.2 1447.2 515.8 1446.2 516.4L1428.5 525.5 1421.3 521 1422.2 501.5 1428.8 498 1446.5 509.7C1446.8 509.7 1447.2 509.7 1447.5 509.7 1447.8 509.7 1448.5 509.5 1448.8 509.1 1449.5 508.2 1449.2 507.2 1448.3 506.9L1432.1 496.2 1440.3 492.1 1448.7 497.3C1448.7 497.6 1449 497.6 1449.3 497.6 1450 497.7 1450.6 497.4 1451 496.8 1451.3 496.1 1451 495.2 1450.4 494.5L1443.6 490.3 1453.8 485C1454.4 484.7 1454.8 483.8 1454.5 482.8 1453.9 482.2 1452.9 481.8 1452.3 482.1L1442.8 487.1 1443.1 480.4C1443.1 479.4 1442.2 478.7 1441.6 478.7 1440.6 478.7 1439.6 479.2 1439.6 480.2L1439.2 488.8 1431 492.9 1431.8 475C1431.8 474.1 1431.2 473.4 1430.3 473.4 1429.3 473.3 1428.7 473.9 1428.6 474.9L1427.7 494.7 1420.8 498.5 1404.3 487.8 1404.6 480.5 1422.7 471.1C1423.7 470.8 1424.1 469.5 1423.4 468.9 1423.2 467.9 1422.2 467.9 1421.2 468.1L1404.8 476.7 1405.3 467.4 1413.5 463.3C1414.1 463 1414.5 461.7 1414.2 461.1S1412.6 460 1411.7 460.3L1405.4 463.6 1406 452.4C1406 451.4 1405.1 450.7 1404.1 450.7 1403.5 450.6 1402.5 451.2 1402.4 452.2L1401.9 463.4 1395.7 459.6C1395.1 459.2 1394.1 459.2 1393.4 460.1 1393.1 460.7 1393.3 462 1394 462.4L1401.7 467.2 1401.3 476.5 1385.8 466.5C1384.8 466.1 1383.8 466.1 1383.2 467 1382.8 467.6 1383.1 468.9 1383.7 469.3L1401.1 480.3 1400.8 487.7 1383.4 496.8 1376.9 492.3 1377.8 472.5C1377.8 471.5 1377.2 470.9 1376.3 470.8 1375.3 470.8 1374.3 471.4 1374.3 472.3L1373.4 490.2 1365.6 485.4 1366 476.8C1366.1 475.8 1365.5 475.1 1364.5 475.1 1363.6 475 1362.9 475.7 1362.9 476.6L1362.5 483.3 1353.5 477.5C1352.9 477.1 1351.6 477.4 1351.3 478 1350.9 478.9 1350.8 479.9 1351.8 480.3L1361.1 486.5 1354.2 490C1353.5 490.6 1353.2 491.5 1353.5 492.2 1353.8 492.8 1354.4 493.2 1355 493.2 1355 493.2 1355.3 493.2 1355.7 492.9L1364.5 488.5 1372.3 493.4 1355.2 502.5C1354.3 502.8 1353.9 503.7 1354.5 504.7 1354.8 505.1 1355.1 505.4 1355.7 505.4 1356.1 505.4 1356.4 505.5 1356.7 505.5L1375.4 495.5 1381.6 499.6 1380.7 519.1 1373.2 522.9 1356.4 512.2C1355.5 511.5 1354.5 511.8 1354.1 512.7 1353.4 513.3 1353.7 514.3 1354.6 515L1369.9 524.7 1361.7 529.1 1354.2 524.3C1353.6 523.9 1352.6 524.2 1351.9 524.8 1351.6 525.7 1351.5 526.7 1352.5 527.1L1358.1 530.9 1349.2 535.6C1348.2 535.8 1348.2 536.8 1348.5 537.8 1348.8 538.1 1349.4 538.5 1350 538.5 1350 538.5 1350.3 538.5 1350.7 538.5L1360.2 533.5 1359.8 541.5C1359.8 542.1 1360.4 543.1 1361.3 543.2 1362.3 543.2 1363 542.3 1363 541.7L1363.5 531.7 1371.7 527.3 1370.8 546.8C1370.7 547.8 1371.7 548.5 1372.6 548.5S1374.3 547.9 1374.3 547L1375.3 525.6 1382.2 522 1398.7 532.8 1398.3 541.1 1379.9 550.5C1379.2 551.1 1378.9 552 1379.1 553 1379.4 553.3 1380.1 553.7 1380.7 553.7 1381 553.7 1381.3 553.7 1381.7 553.4L1398.1 544.9 1397.7 554.2 1389.4 558.6C1388.8 558.9 1388.4 559.8 1388.7 560.8 1389.3 561.5 1390.3 561.8 1390.9 561.5L1397.5 558 1397 568.2C1397 568.9 1397.9 569.9 1398.5 569.9 1399.5 569.9 1400.5 569 1400.5 568.4L1401 558.2 1406.9 562.3C1407.2 562.3 1407.5 562.3 1407.9 562.3 1408.5 562.4 1409.1 562.1 1409.5 561.8 1409.8 560.8 1409.6 559.9 1409 559.2L1401.2 554.3 1401.6 545.1 1417.2 555.1C1418.1 555.8 1419.1 555.5 1419.4 554.9 1420.1 553.9 1419.8 553 1419.2 552.3L1401.8 541.2 1402.2 532.9 1419.6 523.8 1426.1 527.9 1425.1 549.4C1425.1 550.3 1425.7 551 1426.6 551 1427.6 551.1 1428.3 550.5 1428.3 549.5L1429.2 530 1437 535.2 1436.5 545.1C1436.5 545.7 1437.4 546.7 1438.4 546.8 1439.3 546.8 1440 545.9 1440 545.3L1440.4 537.3 1449.4 543.1C1449.8 543.2 1449.8 543.2 1450.1 543.2 1450.7 543.2 1451.4 542.9 1451.7 542.6 1452.1 541.7 1451.8 540.7 1451.2 540.3ZM1402.4 529.1L1400.4 529.9 1398.8 528.9 1385.5 520.3 1383.9 519.2 1384 517.3 1384.7 501.7 1384.8 499.7 1386.5 498.9 1400.6 491.5 1402.2 490.6 1404.1 491.7 1417.2 500.3 1419 501.3 1418.9 503.3 1418.2 518.9 1418.1 520.8 1416.2 521.7 1402.4 529.1Z" fill="rgba(134, 150, 254, 1)"></path><path d="M1233.6 547.1L1210.9 523.1 1210.9 513.9 1228.8 504.1 1236.8 508.8 1244.5 541.1C1244.7 541.5 1244.7 541.5 1244.9 541.8 1245.3 542.5 1246 543.1 1247.3 542.8 1248.3 542.2 1248.8 541.5 1248.6 540.3L1241.8 512.1 1254.1 519.5 1257.2 531.9C1257.2 531.9 1257.4 532.2 1257.4 532.2 1257.8 532.9 1258.5 533.4 1259.8 533.2 1260.7 533.2 1261.3 531.9 1261.1 530.7L1259.4 522.5 1268.4 528.1C1269.1 528.6 1270.3 528.3 1271.2 527.4S1271.3 525.1 1270.4 524.2L1261.6 519 1269.6 516.9C1270.8 516.7 1271.5 515.4 1271.2 514.2 1270.9 513.5 1269.9 512.6 1268.7 512.8L1256.3 516 1243.8 508.2 1272 501.4C1273.3 501.2 1273.9 499.9 1273.9 499 1273.3 498 1272.4 497.1 1271.1 497.3L1239 505.4 1230.8 500.3 1231.3 480.4 1239.7 475.8 1271.6 484.8C1272.6 485.1 1273.7 484.5 1274 483.5S1273.8 481.3 1272.7 481L1244.6 473.1 1257.6 466 1269.5 469.5C1270.6 469.8 1271.7 469.2 1272.4 467.9S1272.1 465.8 1271 465.5L1262.5 463.3 1272 458.1C1273 457.5 1273.2 456.1 1272.6 455 1272 454 1270.9 453.7 1269.9 454.3L1260.4 459.4 1262.8 451.3C1263.4 450 1262.9 449 1261.4 448.8 1260.3 448.5 1259.3 449.1 1259 450.2L1255.5 462.1 1242.5 469.3 1250.9 441.4C1251.3 440.3 1250.5 438.9 1249.4 438.6S1247.3 438.8 1246.9 439.9L1237.6 471.9 1229.2 476.6 1212 465.9 1212.3 456.6 1236.3 433.9C1237.2 432.9 1237 431.7 1236.4 430.6 1235.5 429.8 1234.2 430 1233.2 430.6L1212.3 450.7 1212.6 436.4 1222 427.6C1222.8 426.7 1222.6 425.4 1222 424.4 1221.3 423.9 1219.8 423.7 1219 424.7L1212.9 430.3 1213.1 419.7C1213 418.8 1212.1 417.9 1211 417.6 1209.8 417.9 1208.9 418.8 1208.9 419.7L1208.8 430.2 1202.7 424C1201.9 423.5 1200.5 423.4 1200 424.1 1198.9 424.7 1199 425.6 1199.5 426.7 1199.5 426.7 1199.7 427 1199.7 427L1208.5 436.3 1208.2 450.7 1188 429.8C1187.1 428.9 1186 428.6 1185.2 429.5 1184.3 430.5 1184.3 431.4 1184.7 432.1 1184.9 432.4 1184.9 432.4 1184.9 432.4L1208.2 456.6 1207.8 465.9 1189.9 475.7 1182.2 470.8 1174 438.4C1174 437.5 1172.7 436.8 1171.8 436.8 1170.6 437.1 1169.9 438.3 1170.1 439.6L1176.9 467.8 1164.7 460.4 1161.5 448C1161.3 446.7 1160.4 445.9 1159.3 446.4 1158.1 446.7 1157.4 447.9 1157.4 448.8L1159.7 457.2 1150.7 451.6C1149.6 451.3 1148.4 451.5 1147.5 452.4 1147.4 453 1147.4 453.9 1147.8 454.6 1148 454.9 1148 454.9 1148.5 455.1L1157.5 460.6 1149.2 462.9C1147.9 463.2 1147.6 464.2 1147.7 465.1 1147.8 465.5 1147.8 465.5 1148 465.8 1148.4 466.5 1149.2 467.1 1150.1 467L1162.5 463.9 1174.7 471.3 1146.5 478.1C1145.5 478.6 1144.6 479.6 1145.2 480.6 1145 481.2 1145 481.2 1145.2 481.5 1145.6 482.2 1146.7 482.5 1147.6 482.5L1180 474.3 1187.7 479.2 1187.4 499.4 1179.4 503.9 1147.3 494.5C1146.2 494.2 1144.8 495 1144.5 496S1145 498.5 1146.1 498.9L1174.1 506.7 1161.5 513.7 1149.2 510.4C1148.1 510.1 1147 510.6 1146.7 511.7 1146.4 512.8 1147 513.9 1148.1 514.2L1156.2 516.5 1146.8 521.7C1146.1 522.1 1145.4 523.4 1146 524.5 1146.5 525.5 1148.2 526 1148.9 525.6L1158.3 520.4 1156 528.6C1155.8 529.1 1155.6 529.6 1155.8 530 1156.2 530.7 1156.8 530.9 1157.3 531 1158.4 531.3 1159.4 530.7 1159.8 529.7L1163.6 517.5 1176.2 510.6 1167.8 538.5C1167.6 539 1167.8 539.4 1168.2 540.1 1168.4 540.4 1168.6 540.8 1169.1 540.9 1170.2 541.3 1171.6 540.5 1171.9 539.4L1181.5 507.7 1189.6 503.3 1206.6 513.6 1206.8 523.1 1182.4 546C1181.9 546.7 1181.6 547.8 1182 548.5 1182.1 548.9 1182.1 548.9 1182.5 548.7 1183.1 549.7 1184.5 549.9 1185.4 548.9L1206.3 528.8 1206.1 543.5 1196.8 552.3C1196.3 553 1196.3 553.9 1196.7 554.6 1196.7 554.6 1196.9 554.9 1196.9 554.9 1197.5 556 1198.9 556.1 1199.8 555.2L1206 549 1205.8 559.6C1205.7 560.1 1205.9 560.5 1206.1 560.9 1206.4 561.6 1207.2 562.1 1207.5 561.9 1209 562 1209.8 561.1 1210.1 560L1210.3 549.4 1215.9 555.5C1216.8 556.3 1218.2 556.5 1219.1 555.5 1219.6 554.8 1219.7 553.4 1219 552.8L1210.2 543.5 1210.6 529.2 1230.7 550.1C1231.6 550.9 1232.9 550.7 1233.9 550.1 1234.4 549.4 1234.6 548 1233.6 547.1ZM1224.6 501.4L1210.9 508.9 1208.8 510.1 1206.8 508.9 1193.8 501 1191.6 499.5 1191.6 497.1 1192 481.9 1192.1 479.6 1194.2 478.4 1207.8 470.9 1209.9 469.8 1212 470.9 1225 478.9 1227 480 1227.1 482.7 1226.8 498 1226.7 500.3 1224.6 501.4Z" fill="rgba(73, 66, 228, 1)"></path><path d="M763 114.2L738.6 153.5 726.2 156.7 706.6 136 710.1 123.4 751.1 101.6C751.5 101.2 751.5 101.2 751.9 100.8 752.7 100 753.2 98.8 752.4 97.2 751.3 96 750.1 95.6 748.5 96.3L712.7 115.5 718.4 96.3 734.1 87.6C734.1 87.6 734.5 87.2 734.5 87.2 735.3 86.5 735.7 85.3 735 83.7 734.6 82.5 732.6 82 731 82.8L720.6 88 724.9 73.9C725.4 72.7 724.6 71.1 723.1 70.3S719.9 71 719 72.5L715.1 86.3 709.4 76.2C708.7 74.6 706.7 74.2 705.1 74.9 704.3 75.7 703.5 77.3 704.2 78.9L712.9 94.5 706.8 114.2 687.6 78.4C686.8 76.8 684.9 76.3 683.7 76.7 682.4 77.9 681.6 79.4 682.4 81L704.6 121.7 700.7 134.6 673.6 141 664.3 131.2 665.2 84.9C665.3 83.3 664.1 82.1 662.5 82.1S659.7 83.2 659.7 84.8L658.9 125.5 644.7 110.5 645.2 93.1C645.2 91.5 644.1 90.3 642.1 89.8S639.3 90.9 639.2 92.5L639.3 104.8 628.9 93.8C627.8 92.6 625.8 92.9 624.5 94.1 623.3 95.2 623.3 96.8 624.4 98L634.8 109 623 108.7C621 108.2 619.8 109.4 620.1 111.4 620.1 113 621.2 114.2 622.8 114.2L640.2 114.7 654.5 129.8 613.7 128.2C612.1 128.2 610.5 129.7 610.4 131.3S611.6 134.1 613.1 134.2L659.8 135.5 669.1 145.2 660.8 172.3 648 175.1 608.7 150.7C607.2 149.8 605.6 150.6 604.3 151.7 603.5 153.3 604.2 154.9 605.4 156.1L640.1 177.3 620.5 181.9 605.3 172.4C603.8 171.5 602.2 172.3 601 173.4 600.5 174.6 600.9 176.6 602.4 177.4L612.2 183.7 597.8 187.2C596.6 187.6 595.8 189.1 595.7 190.7 596.5 192.3 598 193.2 599.2 192.8L613.6 189.2 607.4 199.8C606.9 200.9 607.3 202.9 608.4 203.4 609.6 204.6 610.8 204.2 612 203.1 612 203.1 612.4 202.7 612.4 202.7L622 187.5 641.5 182.9 620.3 217.6C619.5 219.1 619.5 220.7 621 221.5 622.6 222.4 623.8 222 624.6 221.2 625 220.9 625 220.9 625 220.9L649.5 180.7 662.2 177.9 681.9 198.7 678 210.8 636.9 233.5C635.7 233.8 635.3 235.8 635.6 237 636.4 238.6 638.4 239 640 238.3L675.7 219.1 670.1 238.3 654.4 247C652.8 247.8 651.9 249.3 653.1 250.5 653.8 252.2 655.8 252.6 657 252.2L667.5 246.2 663.1 260.3C663.1 261.9 663.8 263.5 665.4 264.4 666.2 264.4 667.4 264 668.2 263.2 668.6 262.9 668.6 262.9 668.6 262.1L673 247.9 679 258.4C679.8 260 681.3 260 682.5 259.7 682.9 259.3 682.9 259.3 683.4 258.9 684.2 258.1 684.6 257 684.2 255.8L675.6 240.1 681.2 220.8 700.5 256.6C701.6 257.8 703.2 258.7 704.4 257.5 705.2 257.5 705.2 257.5 705.6 257.2 706.4 256.4 706.4 254.8 706.1 253.6L683.5 212.6 687.4 200.4 714.9 193.6 723.7 203 722.4 249.7C722.4 251.3 723.9 252.9 725.5 253S728.7 251.5 728.8 249.9L729.5 209.1 743.4 223.7 743.3 241.6C743.2 243.1 744.4 244.4 746 244.4 747.5 244.5 748.8 243.3 748.8 241.7L749.1 229.8 759.5 240.8C760.3 241.6 762.3 242.1 763.5 240.9 764.7 239.8 764.8 237.4 764 236.6L753.6 225.6 765.5 225.9C766.3 226 767.1 226 767.5 225.6 768.3 224.8 768.3 224 768.3 223.2 768.4 221.7 767.2 220.4 765.6 220.4L747.8 219.5 734 204.9 774.7 206.4C775.5 206.4 775.9 206 776.7 205.3 777.2 204.9 777.6 204.5 777.6 203.7 777.6 202.1 776.1 200.5 774.5 200.4L728.2 198.8 719.4 189.4 727.2 162.7 740 159.1 779.7 183.9C780.9 184.4 782.5 184.4 783.3 183.7 783.7 183.3 783.7 183.3 783.3 182.9 784.5 181.7 784.2 179.7 782.6 178.9L748 157.7 767.9 152.7 783.1 162.3C784.3 162.7 785.5 162.3 786.3 161.6 786.3 161.6 786.7 161.2 786.7 161.2 787.9 160 787.6 158 786 157.2L775.5 151 789.8 147.4C790.6 147.4 791 147 791.4 146.6 792.3 145.9 792.7 144.7 792.3 144.3 792 142.3 790.4 141.5 788.8 141.4L774.5 145 780.7 135.3C781.5 133.7 781.2 131.7 779.6 130.9 778.4 130.4 776.4 130.8 776 132L766.5 147.1 746.9 151.7 768.1 117.1C768.9 115.5 768.2 113.9 767 112.7 765.9 112.3 763.9 112.6 763 114.2ZM704.4 142.6L719.4 158.5 721.7 160.9 720.8 164.1 714.7 184.5 713.4 188.1 710.3 188.8 689.5 193.7 686.3 194.4 684 192 669 176.1 666.7 173.7 667.6 170.5 673.7 150.1 674.6 147 678.2 145.9 698.9 140.9 702.1 140.2 704.4 142.6Z" fill="rgba(73, 66, 228, 1)"></path></g><defs><mask id="SvgjsMask1128"><rect width="1440" height="560" fill="#ffffff"></rect></mask><filter id="SvgjsFilter1129"><feGaussianBlur stdDeviation="1"></feGaussianBlur></filter></defs></svg>